<svg width="173" height="173" viewBox="0 0 173 173" fill="none" xmlns="http://www.w3.org/2000/svg">
<g filter="url(#filter0_d_683_12251)">
<rect x="6" y="4" width="161" height="161" rx="24" fill="white"/>
</g>
<path d="M104.826 127.152C105.094 123.467 105.332 120.288 105.553 117.093C105.601 116.334 105.601 115.559 105.632 114.831C105.806 110.15 105.806 110.15 101.615 106.291C90.7495 98.1456 80.0737 89.7473 69.3979 81.3649C68.0061 80.2736 67.1837 80.321 65.9342 81.5546C59.94 87.5331 53.8825 93.4482 47.825 99.3634C45.3103 101.831 41.9573 101.34 40.9451 98.367C40.2808 96.4216 41.2139 94.9507 42.5425 93.6538C48.426 87.9285 54.3254 82.2031 60.1931 76.4619C76.4993 60.5195 92.8055 44.5612 109.096 28.6187C109.681 28.0494 110.298 27.4958 110.867 26.9106C112.275 25.4555 114.015 24.8862 115.865 25.6453C117.747 26.4203 118.506 28.2075 118.506 30.1212C118.491 33.3319 118.269 36.5583 118.064 39.769C117.605 47.329 117.115 54.889 116.624 62.449C116.039 71.5115 115.454 80.5899 114.885 89.6524C114.473 96.0737 114.062 102.495 113.667 108.932C113.24 116.049 112.876 123.182 112.417 130.299C112.322 131.754 112.797 132.672 114.046 133.368C115.264 134.048 116.387 134.87 117.526 135.677C119.74 137.243 120.452 139.599 119.266 141.355C118.048 143.158 115.628 143.442 113.35 141.956C105.221 136.61 97.1233 131.232 89.0255 125.839C86.6057 124.226 84.1542 122.676 81.8293 120.936C80.2002 119.718 79.8681 117.362 80.8803 115.828C81.8609 114.325 83.9011 113.835 85.7832 114.721C86.5266 115.069 87.2067 115.543 87.8868 116.002C92.7897 119.244 97.6768 122.486 102.58 125.729C103.165 126.108 103.734 126.456 104.826 127.152ZM106.012 100.075C106.217 99.9644 106.423 99.8537 106.629 99.743C106.913 94.3339 107.214 88.9407 107.451 83.5316C107.467 83.1204 107.135 82.5669 106.803 82.2664C99.8911 76.1614 92.9795 70.0723 86.0047 64.0306C85.6251 63.6985 84.518 63.5403 84.2649 63.7934C80.7063 67.3519 77.2268 71.0212 73.5259 74.8645C84.2491 83.1995 95.1305 91.6294 106.012 100.075ZM108.242 72.9982C108.511 68.3958 108.795 64.3311 108.954 60.2506C108.969 59.618 108.527 58.8113 108.052 58.3369C105.458 55.7589 102.754 53.2916 100.176 50.7136C99.211 49.7488 98.5151 49.6539 97.5345 50.6661C95.6682 52.6273 93.7387 54.541 91.7459 56.3757C90.6704 57.3563 90.7653 57.9731 91.8407 58.9062C96.7595 63.1449 101.583 67.4785 106.47 71.7646C106.866 72.1284 107.356 72.3972 108.242 72.9982ZM109.175 48.705C109.349 48.6417 109.539 48.5784 109.713 48.4994C109.918 45.352 110.108 42.1888 110.314 39.0414C110.14 38.9465 109.966 38.8675 109.792 38.7726C108.194 40.3383 106.581 41.8725 105.047 43.5015C104.841 43.7229 104.921 44.5296 105.158 44.7826C106.455 46.127 107.831 47.3922 109.175 48.705Z" fill="url(#paint0_linear_683_12251)"/>
<defs>
<filter id="filter0_d_683_12251" x="0" y="0" width="173" height="173" filterUnits="userSpaceOnUse" color-interpolation-filters="sRGB">
<feFlood flood-opacity="0" result="BackgroundImageFix"/>
<feColorMatrix in="SourceAlpha" type="matrix" values="0 0 0 0 0 0 0 0 0 0 0 0 0 0 0 0 0 0 127 0" result="hardAlpha"/>
<feOffset dy="2"/>
<feGaussianBlur stdDeviation="3"/>
<feComposite in2="hardAlpha" operator="out"/>
<feColorMatrix type="matrix" values="0 0 0 0 0 0 0 0 0 0 0 0 0 0 0 0 0 0 0.25 0"/>
<feBlend mode="normal" in2="BackgroundImageFix" result="effect1_dropShadow_683_12251"/>
<feBlend mode="normal" in="SourceGraphic" in2="effect1_dropShadow_683_12251" result="shape"/>
</filter>
<linearGradient id="paint0_linear_683_12251" x1="39.0373" y1="-25.8226" x2="157.166" y2="9.05219" gradientUnits="userSpaceOnUse">
<stop stop-color="#E2B0F3"/>
<stop offset="0.520833" stop-color="#E277DE"/>
<stop offset="1" stop-color="#79BBF9"/>
</linearGradient>
</defs>
</svg>
