<svg width="24" height="24" viewBox="0 0 24 24" fill="none" xmlns="http://www.w3.org/2000/svg">
<path d="M17.5467 20.5046L17.5342 20.5041L17.5216 20.5041C17.4423 20.5044 17.364 20.4859 17.2932 20.4499C17.2927 20.4497 17.2922 20.4494 17.2916 20.4491L12.1955 17.7811L11.9636 17.6597L11.7317 17.7811L6.63172 20.4511L6.63092 20.4516C6.54812 20.4951 6.45476 20.5145 6.36146 20.5077C6.26816 20.5008 6.17866 20.4679 6.10314 20.4127C6.02761 20.3575 5.96909 20.2822 5.93423 20.1953C5.89937 20.1085 5.88956 20.0137 5.90592 19.9216L5.41363 19.8341L5.90592 19.9216L6.90592 14.2916L6.95234 14.0302L6.76192 13.8454L2.64481 9.84818C2.5816 9.78438 2.53672 9.70471 2.51493 9.61754C2.49329 9.53097 2.49521 9.44021 2.52046 9.35468C2.54976 9.26764 2.60248 9.19031 2.67287 9.13121C2.74445 9.07112 2.83145 9.03229 2.92399 9.01914L2.92568 9.01889L8.62568 8.18889L8.88679 8.15087L9.00275 7.91386L11.5128 2.78386L11.5136 2.78205C11.5546 2.69752 11.6185 2.62623 11.6981 2.57634C11.7777 2.52646 11.8697 2.5 11.9636 2.5C12.0576 2.5 12.1496 2.52646 12.2292 2.57634C12.3088 2.62623 12.3727 2.69752 12.4136 2.78205L12.4136 2.78206L12.4157 2.78632L14.9557 7.90632L15.0722 8.14112L15.3316 8.17889L21.0316 9.0089L21.0333 9.00914C21.1258 9.02229 21.2128 9.06112 21.2844 9.12121C21.3548 9.1803 21.4075 9.25762 21.4368 9.34466C21.462 9.43019 21.464 9.52096 21.4423 9.60753C21.4205 9.69471 21.3757 9.77439 21.3124 9.8382L17.1953 13.8354L17.0049 14.0202L17.0513 14.2816L18.0513 19.9116L18.0513 19.9116L18.0525 19.9176C18.0703 20.0114 18.061 20.1083 18.0255 20.1969C17.9904 20.2847 17.9311 20.3607 17.8545 20.4162C17.7644 20.4786 17.6562 20.5097 17.5467 20.5046Z" fill="#BE55FF" stroke="#BE55FF"/>
</svg>
