<svg width="24" height="24" viewBox="0 0 24 24" fill="none" xmlns="http://www.w3.org/2000/svg">
<path d="M17.2805 8.57672L15.5569 10.0027L15.5119 7.86236L15.5061 7.5876L15.2711 7.44521L13.4537 6.34436L15.5391 5.56892L15.7782 5.48002L15.8465 5.23429L16.4366 3.11334L17.7762 4.78586L17.9435 4.99477L18.2101 4.97138L20.3664 4.78224L19.132 6.56449L18.9805 6.78311L19.0772 7.03087L19.8559 9.02722L17.724 8.47779L17.477 8.41413L17.2805 8.57672ZM13.2867 6.40647L13.2867 6.40646L13.2867 6.40647Z" fill="#BE55FF" stroke="#BE55FF"/>
<path d="M14.2805 18.5767L12.5569 20.0027L12.5119 17.8624L12.5061 17.5876L12.2711 17.4452L10.4537 16.3444L12.5391 15.5689L12.7782 15.48L12.8465 15.2343L13.4366 13.1133L14.7762 14.7859L14.9435 14.9948L15.2101 14.9714L17.3664 14.7822L16.132 16.5645L15.9805 16.7831L16.0772 17.0309L16.8559 19.0272L14.724 18.4778L14.477 18.4141L14.2805 18.5767ZM10.2867 16.4065L10.2867 16.4065L10.2867 16.4065Z" fill="#BE55FF" stroke="#BE55FF"/>
<path d="M6.2805 11.5767L4.55693 13.0027L4.51192 10.8624L4.50614 10.5876L4.27108 10.4452L2.4537 9.34436L4.53908 8.56892L4.77815 8.48002L4.84652 8.23429L5.43661 6.11334L6.77617 7.78586L6.94349 7.99477L7.21012 7.97138L9.36644 7.78224L8.13197 9.56449L7.98055 9.78311L8.07719 10.0309L8.85585 12.0272L6.72401 11.4778L6.47702 11.4141L6.2805 11.5767ZM2.28668 9.40647L2.28669 9.40646L2.28668 9.40647Z" fill="#BE55FF" stroke="#BE55FF"/>
</svg>
