<svg width="24" height="24" viewBox="0 0 24 24" fill="none" xmlns="http://www.w3.org/2000/svg">
<path opacity="0.8" d="M12.4971 10.323C12.4975 10.3252 12.4976 10.327 12.4976 10.3286L12.4946 10.3302L12.4877 10.3342L9.58058 10.3954L9.30582 10.4011L9.16343 10.6362L7.65934 13.1193C7.6583 13.1186 7.65717 13.1178 7.65599 13.1168C7.6498 13.1118 7.6442 13.1043 7.64092 13.0955L7.64092 13.0955L6.59398 10.28L6.50509 10.0409L6.25936 9.97256L3.42503 9.18398C3.42214 9.18294 3.41716 9.18033 3.41184 9.17471C3.40691 9.1695 3.4031 9.16312 3.40078 9.15649C3.40025 9.15206 3.40065 9.14887 3.40104 9.14709L5.65419 7.3425L5.8631 7.17518L5.83971 6.90855L5.58 3.9478L8.02678 5.64255L8.24541 5.79398L8.49317 5.69734L11.1826 4.64835C11.1843 4.6489 11.1873 4.65015 11.1908 4.65282C11.1954 4.65815 11.199 4.66464 11.2011 4.67152C11.2033 4.67893 11.2031 4.68455 11.2025 4.68758L10.4683 7.53646L10.4046 7.78345L10.5672 7.97997L12.482 10.2944L12.482 10.2944L12.4858 10.2989C12.492 10.3062 12.4958 10.315 12.4971 10.323ZM7.66778 13.1406L7.87595 13.5755L7.6654 13.1356L7.66708 13.1391L7.66778 13.1406ZM7.6654 13.1356L7.66011 13.1245L7.66778 13.1406L7.66707 13.1391L7.6654 13.1356Z" fill="#BE55FF" stroke="#BE55FF"/>
<path d="M21.3272 18.1531C21.3276 18.1552 21.3277 18.1571 21.3277 18.1587L21.3247 18.1603L21.3178 18.1643L18.4107 18.2254L18.1359 18.2312L17.9935 18.4663L16.4894 20.9494C16.4884 20.9487 16.4873 20.9479 16.4861 20.9469C16.4799 20.9419 16.4743 20.9344 16.471 20.9256L16.471 20.9256L15.4241 18.1101L15.3352 17.871L15.0894 17.8026L12.2551 17.0141C12.2522 17.013 12.2472 17.0104 12.2419 17.0048C12.237 16.9996 12.2332 16.9932 12.2309 16.9866C12.2303 16.9821 12.2307 16.9789 12.2311 16.9772L14.4843 15.1726L14.6932 15.0053L14.6698 14.7386L14.4101 11.7779L16.8569 13.4726L17.0755 13.6241L17.3232 13.5274L20.0126 12.4784C20.0144 12.479 20.0173 12.4802 20.0209 12.4829C20.0255 12.4882 20.0291 12.4947 20.0312 12.5016C20.0334 12.509 20.0331 12.5146 20.0326 12.5177L19.2984 15.3665L19.2347 15.6135L19.3973 15.81L21.3121 18.1245L21.3121 18.1245L21.3159 18.129C21.3221 18.1363 21.3259 18.1451 21.3272 18.1531ZM16.4979 20.9706L16.706 21.4056L16.4955 20.9657L16.4972 20.9692L16.4979 20.9706ZM16.4955 20.9657L16.4902 20.9546L16.4979 20.9706L16.4971 20.9692L16.4955 20.9657Z" fill="#BE55FF" stroke="#BE55FF"/>
</svg>
