<svg width="33" height="33" viewBox="0 0 33 33" fill="none" xmlns="http://www.w3.org/2000/svg">
<path d="M22.0683 21.5078C22.0332 22.093 22.0002 22.6787 21.9672 23.2644C21.9179 24.139 21.8685 25.0138 21.8122 25.8875C21.7928 26.1857 21.89 26.3737 22.1461 26.5164C22.3672 26.6398 22.5731 26.7862 22.7794 26.9329C22.806 26.9519 22.8327 26.9708 22.8593 26.9897M22.0683 21.5078L22.268 21.5201C22.268 21.5201 22.268 21.52 22.268 21.52M22.0683 21.5078C22.1494 20.1884 22.2337 18.8723 22.3179 17.5561C22.4347 15.6986 22.5546 13.8378 22.6745 11.9803M22.0683 21.5078L22.268 21.5198C22.268 21.5199 22.268 21.5199 22.268 21.52M22.268 21.52C22.233 22.1034 22.2 22.6885 22.1669 23.2741C22.1176 24.1496 22.0681 25.0263 22.0118 25.9003L22.0118 25.9005C22.0036 26.0258 22.0213 26.1074 22.0527 26.1669C22.0837 26.2257 22.1389 26.2834 22.2434 26.3416L22.2436 26.3418C22.4749 26.4709 22.6901 26.624 22.8955 26.77C22.9221 26.7889 22.9485 26.8078 22.9748 26.8264M22.268 21.52C22.349 20.201 22.4332 18.8852 22.5175 17.5691L22.5175 17.5689L22.5176 17.5687C22.6342 15.7113 22.7542 13.8507 22.8741 11.9932M22.9748 26.8264L22.8593 26.9897M22.9748 26.8264C22.9748 26.8264 22.9749 26.8264 22.9749 26.8265L22.8593 26.9897M22.9748 26.8264C23.4802 27.1838 23.7083 27.7819 23.3817 28.2654C23.0523 28.753 22.4219 28.7886 21.8942 28.4441L21.8936 28.4438C20.2269 27.3477 18.5667 26.2453 16.9068 25.1397L16.9067 25.1397C16.7921 25.0633 16.6763 24.9871 16.5601 24.9105C16.1789 24.6595 15.7924 24.4051 15.4228 24.1285M22.8593 26.9897C23.3132 27.3106 23.4591 27.7936 23.2159 28.1535L15.5426 23.9683M15.4228 24.1285L15.5426 23.9683M15.4228 24.1285C15.4228 24.1285 15.4229 24.1285 15.4229 24.1285L15.5426 23.9683M15.4228 24.1285C15.0035 23.8149 14.9161 23.2135 15.1809 22.8115M15.5426 23.9683C15.2087 23.7187 15.1407 23.2357 15.3481 22.9212M15.1809 22.8115C15.1808 22.8117 15.1807 22.8118 15.1806 22.8119L15.3481 22.9212M15.1809 22.8115C15.181 22.8114 15.1811 22.8112 15.1812 22.8111L15.3481 22.9212M15.1809 22.8115L15.3481 22.9212M20.2057 23.1675C20.2114 23.0765 20.2134 22.9923 20.2156 22.9054C20.2171 22.8425 20.2187 22.7782 20.2217 22.7091M20.2057 23.1675L20.2217 22.7083C20.2217 22.7086 20.2217 22.7088 20.2217 22.7091M20.2057 23.1675C20.1715 23.6619 20.1354 24.1543 20.096 24.6915C20.091 24.7586 20.0861 24.8264 20.081 24.895C20.0158 24.8539 19.9617 24.8198 19.9055 24.7833C19.4033 24.4512 18.9019 24.1191 18.4005 23.787C17.8991 23.4549 17.3977 23.1228 16.8954 22.7906C16.8835 22.7826 16.8714 22.7745 16.8592 22.7662C16.7338 22.6813 16.5924 22.5855 16.4381 22.5133C16.4381 22.5133 16.4382 22.5133 16.4382 22.5134L16.3531 22.6943L16.4379 22.5132L20.2057 23.1675ZM20.2217 22.7091C20.2402 22.2105 20.2419 22.0284 20.1643 21.8636C20.126 21.7822 20.0631 21.6961 19.9494 21.5767C19.836 21.4577 19.6829 21.3164 19.4701 21.1204M20.2217 22.7091L19.4701 21.1204M19.4701 21.1204C17.3282 19.5146 15.2225 17.8611 13.1201 16.2103C13.0372 16.1451 12.9542 16.08 12.8712 16.0148C12.7377 15.9102 12.6739 15.896 12.6397 15.8979C12.6059 15.8997 12.5449 15.9205 12.4255 16.0383C11.1962 17.2644 9.95403 18.4773 8.71276 19.6895C8.41945 19.9772 8.05887 20.1093 7.72349 20.0606C7.38219 20.011 7.09967 19.7779 6.97332 19.4068C6.88926 19.1605 6.90546 18.9356 6.98808 18.7337C7.06799 18.5384 7.20609 18.374 7.35036 18.2332L7.35059 18.2329C7.65002 17.9416 7.94962 17.6502 8.24924 17.3588C9.15656 16.4765 10.0641 15.594 10.968 14.7095L10.9681 14.7095C14.2416 11.509 17.5151 8.30537 20.7856 5.10471L20.9916 4.90316L20.992 4.90276C21.0418 4.85432 21.0894 4.80937 21.1358 4.76561C21.2097 4.69597 21.2803 4.62935 21.3512 4.55652L21.4945 4.69599M19.4701 21.1204L23.1778 7.2098C23.2172 6.59703 23.2573 5.9749 23.2603 5.35506V5.35407C23.2603 4.91254 23.0814 4.45195 22.5951 4.25171L22.5948 4.25161C22.1229 4.05799 21.6823 4.21424 21.3508 4.55693L21.4945 4.69599M21.4945 4.69599C21.7831 4.39775 22.1396 4.28104 22.5189 4.43665M21.4945 4.69599C21.4215 4.77107 21.3446 4.84361 21.2679 4.91599C21.2221 4.95925 21.1763 5.00245 21.1315 5.0461L20.9227 5.2504L22.5189 4.43665M22.5189 4.43665C22.9047 4.5955 23.0603 4.96182 23.0603 5.35407C23.0573 5.96774 23.0176 6.58423 22.9781 7.19828C22.9752 7.24272 22.9724 7.28714 22.9695 7.33155M22.5189 4.43665L22.8741 11.9932M22.9695 7.33155C22.8755 8.88088 22.7751 10.4302 22.6746 11.9795L22.6745 11.9803M22.9695 7.33155L23.1691 7.34433C23.1691 7.3442 23.1692 7.34407 23.1692 7.34394L23.1692 7.34366L22.9695 7.33155ZM22.6745 11.9803L22.8741 11.9931L22.8741 11.9932M22.6745 11.9803L22.8741 11.9932M20.4378 19.3915C19.6899 18.8111 18.9422 18.2312 18.1959 17.6523C16.8367 16.598 15.482 15.5473 14.1389 14.5035C14.2591 14.3785 14.3782 14.2544 14.4964 14.1313C15.0577 13.5464 15.5995 12.982 16.1502 12.4303C16.1592 12.4306 16.1702 12.4315 16.1829 12.4332C16.2074 12.4366 16.2312 12.4425 16.2499 12.4492C16.2591 12.4524 16.2655 12.4554 16.2692 12.4573L20.4378 19.3915ZM20.4378 19.3915C20.446 19.2367 20.4542 19.0821 20.4624 18.9275C20.5092 18.0499 20.5558 17.1746 20.5943 16.2971C20.5941 16.296 20.5936 16.294 20.5928 16.2913C20.5904 16.2832 20.5859 16.2718 20.5786 16.2583C20.5634 16.2302 20.5434 16.2054 20.5279 16.1911C19.1125 14.9409 17.6977 13.6945 16.2701 12.4578L20.4378 19.3915ZM20.2562 25.2424C20.2618 25.1658 20.2673 25.0904 20.2727 25.0159L20.0645 25.1209C20.1193 25.1554 20.1818 25.1949 20.2562 25.2424ZM17.71 10.8832L17.7107 10.8826C18.1226 10.5034 18.521 10.1082 18.9059 9.7037C18.9476 9.66074 18.9781 9.63829 18.9987 9.62712C19.0172 9.61706 19.0244 9.61783 19.0251 9.61786C19.031 9.61811 19.0695 9.62407 19.1617 9.71628C19.4278 9.98241 19.7001 10.2425 19.9711 10.5009L19.9979 10.5264C20.2602 10.7766 20.521 11.0253 20.7763 11.279C20.8084 11.3112 20.8429 11.3586 20.8683 11.41C20.8944 11.4628 20.9026 11.503 20.9024 11.5237C20.879 12.1255 20.8422 12.7248 20.8028 13.3676C20.7944 13.5037 20.786 13.6419 20.7775 13.7824C20.7585 13.7683 20.7429 13.7555 20.7287 13.7425L20.7288 13.7424L20.7252 13.7393C20.3596 13.4187 19.9949 13.096 19.63 12.7732C18.9979 12.2138 18.365 11.6539 17.7255 11.1028C17.6762 11.06 17.6474 11.0286 17.6314 11.0058C17.6253 10.9971 17.6221 10.9911 17.6204 10.9875C17.6215 10.9851 17.6232 10.9816 17.626 10.9769C17.6377 10.9573 17.6621 10.9269 17.71 10.8832ZM21.159 7.51909C21.1458 7.72574 21.1328 7.93254 21.1199 8.13921C21.1057 8.36536 21.0915 8.59134 21.0771 8.81699C21.0528 8.79368 21.0285 8.77046 21.0043 8.74731C20.8267 8.57729 20.6526 8.41067 20.4829 8.23554C20.4822 8.23294 20.4815 8.22987 20.4808 8.22636C20.4796 8.22037 20.4786 8.21391 20.478 8.20737C20.4779 8.20535 20.4777 8.2034 20.4776 8.20151C20.6986 7.96847 20.927 7.74507 21.159 7.51909Z" fill="url(#paint0_linear_439_9881)" stroke="url(#paint1_linear_439_9881)" stroke-width="0.4"/>
<defs>
<linearGradient id="paint0_linear_439_9881" x1="6.77161" y1="-6.11268" x2="30.9844" y2="1.03557" gradientUnits="userSpaceOnUse">
<stop stop-color="#E2B0F3"/>
<stop offset="0.520833" stop-color="#E277DE"/>
<stop offset="1" stop-color="#79BBF9"/>
</linearGradient>
<linearGradient id="paint1_linear_439_9881" x1="6.77161" y1="-6.11268" x2="30.9844" y2="1.03557" gradientUnits="userSpaceOnUse">
<stop stop-color="#E2B0F3"/>
<stop offset="0.520833" stop-color="#E277DE"/>
<stop offset="1" stop-color="#79BBF9"/>
</linearGradient>
</defs>
</svg>
