<svg width="18" height="26" viewBox="0 0 18 26" fill="none" xmlns="http://www.w3.org/2000/svg">
<path d="M14.1385 21.8747C14.1936 21.1193 14.2423 20.4678 14.2876 19.8129C14.2974 19.6573 14.2974 19.4985 14.3038 19.3493C14.3395 18.3898 14.3395 18.3898 13.4804 17.5988C11.2533 15.9293 9.06514 14.2079 6.87694 12.4897C6.59167 12.2661 6.42309 12.2758 6.16699 12.5286C4.93836 13.754 3.69676 14.9665 2.45516 16.1789C1.93972 16.6846 1.25246 16.5841 1.04499 15.9747C0.908834 15.5759 1.1001 15.2744 1.37241 15.0086C2.57835 13.8351 3.78753 12.6616 4.99023 11.4848C8.3325 8.21709 11.6748 4.94613 15.0138 1.67843C15.1337 1.56172 15.2602 1.44826 15.3769 1.32831C15.6654 1.03007 16.022 0.913367 16.4013 1.06897C16.787 1.22782 16.9427 1.59414 16.9427 1.98639C16.9394 2.64447 16.894 3.3058 16.8519 3.96388C16.7579 5.51345 16.6574 7.06301 16.5569 8.61258C16.4369 10.4701 16.317 12.3309 16.2003 14.1884C16.116 15.5046 16.0317 16.8208 15.9507 18.1402C15.8631 19.599 15.7886 21.061 15.6946 22.5198C15.6751 22.818 15.7724 23.0061 16.0285 23.1487C16.2781 23.2881 16.5083 23.4567 16.7417 23.622C17.1955 23.9429 17.3414 24.426 17.0983 24.7858C16.8486 25.1554 16.3526 25.2137 15.8858 24.909C14.2196 23.8133 12.5598 22.7111 10.9 21.6056C10.404 21.275 9.90152 20.9573 9.42498 20.6007C9.09107 20.351 9.023 19.868 9.23047 19.5536C9.43146 19.2456 9.84965 19.1451 10.2354 19.3266C10.3878 19.398 10.5272 19.4952 10.6666 19.5892C11.6715 20.2538 12.6732 20.9184 13.6782 21.5829C13.7981 21.6607 13.9148 21.732 14.1385 21.8747ZM14.3816 16.3248C14.4238 16.3021 14.4659 16.2794 14.5081 16.2567C14.5664 15.148 14.628 14.0426 14.6767 12.9339C14.6799 12.8496 14.6118 12.7361 14.5437 12.6745C13.1271 11.4232 11.7104 10.1751 10.2808 8.93676C10.203 8.86868 9.97608 8.83626 9.92421 8.88813C9.19481 9.61753 8.48162 10.3696 7.72304 11.1574C9.92097 12.8658 12.1513 14.5937 14.3816 16.3248ZM14.8387 10.7748C14.8939 9.83149 14.9522 8.99835 14.9846 8.16197C14.9879 8.0323 14.8971 7.86697 14.7998 7.76972C14.2682 7.24131 13.7138 6.73559 13.1854 6.20718C12.9877 6.00944 12.845 5.98999 12.6441 6.19746C12.2615 6.59944 11.866 6.99169 11.4576 7.36774C11.2371 7.56873 11.2566 7.69516 11.477 7.88642C12.4852 8.75522 13.474 9.64347 14.4757 10.522C14.5567 10.5965 14.6572 10.6517 14.8387 10.7748ZM15.03 5.79548C15.0657 5.78251 15.1046 5.76955 15.1402 5.75334C15.1824 5.10822 15.2213 4.45987 15.2634 3.81476C15.2278 3.7953 15.1921 3.7791 15.1564 3.75965C14.829 4.08058 14.4984 4.39503 14.1839 4.72894C14.1418 4.77432 14.158 4.93965 14.2066 4.99152C14.4724 5.26707 14.7545 5.52641 15.03 5.79548Z" fill="#5B5B5B" stroke="#5B5B5B" stroke-width="0.4"/>
</svg>
