<?xml version="1.0" encoding="utf-8"?>
<!-- Generator: Adobe Illustrator 26.5.0, SVG Export Plug-In . SVG Version: 6.00 Build 0)  -->
<svg version="1.1" id="레이어_3_xA0_이미지_00000070086390909440380340000007313027680883345536_"
	 xmlns="http://www.w3.org/2000/svg" xmlns:xlink="http://www.w3.org/1999/xlink" x="0px" y="0px" viewBox="0 0 82.2 82.2"
	 style="enable-background:new 0 0 82.2 82.2;" xml:space="preserve">
<style type="text/css">
	.st0{display:none;fill:#FFFFFF;}
</style>
<g>
	<path class="st0" d="M168.31,178.81c-86.39,0-172.79,0-259.2,0c0-86.38,0-172.77,0-259.2c86.39,0,172.79,0,259.2,0
		C168.31,6,168.31,92.4,168.31,178.81z M52.59,68.11c-0.68-0.44-1.05-0.66-1.41-0.9c-3.1-2.05-6.19-4.1-9.29-6.15
		c-0.43-0.29-0.86-0.59-1.33-0.81c-1.19-0.57-2.48-0.26-3.1,0.7c-0.64,0.97-0.43,2.46,0.6,3.23c1.47,1.1,3.02,2.08,4.55,3.1
		c5.12,3.4,10.25,6.8,15.38,10.19c1.44,0.95,2.96,0.76,3.74-0.38c0.75-1.11,0.3-2.6-1.1-3.59c-0.72-0.51-1.43-1.03-2.2-1.46
		c-0.8-0.44-1.09-1.02-1.03-1.94c0.29-4.5,0.52-9,0.79-13.51c0.24-4.06,0.51-8.12,0.77-12.19c0.37-5.73,0.74-11.47,1.1-17.2
		c0.3-4.78,0.62-9.56,0.91-14.34c0.12-2.03,0.26-4.06,0.28-6.1c0.01-1.21-0.48-2.34-1.67-2.83c-1.18-0.49-2.27-0.13-3.16,0.8
		c-0.36,0.37-0.75,0.72-1.12,1.08C44.99,15.89,34.68,25.98,24.37,36.07c-3.71,3.63-7.44,7.25-11.16,10.87
		c-0.85,0.82-1.43,1.75-1.01,2.98c0.64,1.88,2.76,2.19,4.35,0.63c3.83-3.74,7.66-7.48,11.45-11.26c0.78-0.78,1.31-0.81,2.19-0.12
		c6.76,5.3,13.5,10.61,20.37,15.76c1.94,1.45,3.37,2.78,2.54,5.4c-0.14,0.44-0.02,0.95-0.05,1.43
		C52.91,63.77,52.76,65.78,52.59,68.11z"/>
	<path d="M52.59,68.11c0.17-2.33,0.32-4.34,0.46-6.36c0.03-0.48,0.03-0.97,0.05-1.43c0.11-2.96,0.11-2.96-2.54-5.4
		c-6.87-5.15-13.62-10.46-20.37-15.76c-0.88-0.69-1.4-0.66-2.19,0.12c-3.79,3.78-7.62,7.52-11.45,11.26
		c-1.59,1.56-3.71,1.25-4.35-0.63c-0.42-1.23,0.17-2.16,1.01-2.98c3.72-3.62,7.45-7.24,11.16-10.87
		C34.68,25.98,44.99,15.89,55.29,5.81c0.37-0.36,0.76-0.71,1.12-1.08c0.89-0.92,1.99-1.28,3.16-0.8c1.19,0.49,1.67,1.62,1.67,2.83
		c-0.01,2.03-0.15,4.07-0.28,6.1c-0.29,4.78-0.6,9.56-0.91,14.34c-0.37,5.73-0.74,11.47-1.1,17.2c-0.26,4.06-0.52,8.12-0.77,12.19
		c-0.27,4.5-0.5,9.01-0.79,13.51c-0.06,0.92,0.24,1.5,1.03,1.94c0.77,0.43,1.48,0.95,2.2,1.46c1.4,0.99,1.85,2.48,1.1,3.59
		c-0.77,1.14-2.3,1.32-3.74,0.38c-5.14-3.38-10.26-6.78-15.38-10.19c-1.53-1.02-3.08-2-4.55-3.1c-1.03-0.77-1.24-2.26-0.6-3.23
		c0.62-0.95,1.91-1.26,3.1-0.7c0.47,0.22,0.9,0.52,1.33,0.81c3.1,2.05,6.19,4.1,9.29,6.15C51.54,67.45,51.9,67.67,52.59,68.11z
		 M53.34,50.99c0.13-0.07,0.26-0.14,0.39-0.21c0.18-3.42,0.37-6.83,0.52-10.25c0.01-0.26-0.2-0.61-0.41-0.8
		c-4.37-3.86-8.74-7.71-13.15-11.53c-0.24-0.21-0.94-0.31-1.1-0.15c-2.25,2.25-4.45,4.57-6.79,7
		C39.58,40.32,46.46,45.65,53.34,50.99z M54.75,33.87c0.17-2.91,0.35-5.48,0.45-8.06c0.01-0.4-0.27-0.91-0.57-1.21
		c-1.64-1.63-3.35-3.19-4.98-4.82c-0.61-0.61-1.05-0.67-1.67-0.03c-1.18,1.24-2.4,2.45-3.66,3.61c-0.68,0.62-0.62,1.01,0.06,1.6
		c3.11,2.68,6.16,5.42,9.25,8.13C53.88,33.32,54.19,33.49,54.75,33.87z M55.34,18.51c0.11-0.04,0.23-0.08,0.34-0.13
		c0.13-1.99,0.25-3.99,0.38-5.98c-0.11-0.06-0.22-0.11-0.33-0.17c-1.01,0.99-2.03,1.96-3,2.99c-0.13,0.14-0.08,0.65,0.07,0.81
		C53.62,16.88,54.49,17.68,55.34,18.51z"/>
	<path class="st0" d="M53.34,50.99c-6.88-5.33-13.76-10.67-20.54-15.93c2.34-2.44,4.54-4.75,6.79-7c0.17-0.17,0.86-0.07,1.1,0.15
		c4.4,3.82,8.78,7.67,13.15,11.53c0.21,0.19,0.42,0.54,0.41,0.8c-0.15,3.42-0.34,6.83-0.52,10.25
		C53.6,50.85,53.47,50.92,53.34,50.99z"/>
	<path class="st0" d="M54.75,33.87c-0.56-0.38-0.87-0.55-1.12-0.78c-3.08-2.71-6.14-5.45-9.25-8.13c-0.68-0.59-0.74-0.97-0.06-1.6
		c1.26-1.16,2.47-2.37,3.66-3.61c0.62-0.64,1.05-0.59,1.67,0.03c1.63,1.63,3.34,3.19,4.98,4.82c0.3,0.3,0.59,0.81,0.57,1.21
		C55.1,28.39,54.92,30.97,54.75,33.87z"/>
	<path class="st0" d="M55.34,18.51c-0.85-0.82-1.73-1.63-2.54-2.49c-0.15-0.16-0.2-0.67-0.07-0.81c0.97-1.03,2-2,3-2.99
		c0.11,0.06,0.22,0.11,0.33,0.17c-0.13,1.99-0.25,3.99-0.38,5.98C55.57,18.42,55.46,18.46,55.34,18.51z"/>
</g>
</svg>
