<svg width="24" height="24" viewBox="0 0 24 24" fill="none" xmlns="http://www.w3.org/2000/svg">
<path d="M12.4638 17.334L12 17.0912L11.5362 17.334L6.43619 20.004L6.4346 20.0048L7.4346 14.3748L7.52742 13.8522L7.14659 13.4825L3.05179 9.50695L8.7341 8.67952L9.25632 8.60348L9.48825 8.12945L11.9983 2.99945L11.9983 2.99946L12 2.9959L12.0042 3.00437L14.5442 8.12437L14.7772 8.59399L15.2959 8.66952L20.9782 9.49695L16.8834 13.4725L16.5026 13.8422L16.5954 14.3648L17.5954 19.9948L17.5953 19.9949L17.5977 20.007L17.6054 20.0178L17.56 21L17.5561 20.0189L17.5638 20.004L12.4638 17.334Z" fill="white" stroke="#5B5B5B" stroke-width="2"/>
</svg>
